<svg xmlns="http://www.w3.org/2000/svg" viewBox="0 0 256 256">
    <path fill="#F05032" d="M250.7 114.7L141.3 5.3c-7-7-18.5-7-25.5 0L93.1 28l32.5 32.5c7.6-2.6 16.3-.9 22.3 5.2 6 6 7.7 14.8 5.1 22.4l31.3 31.3c7.6-2.6 16.3-.9 22.3 5.2 8.6 8.6 8.6 22.6 0 31.2s-22.6 8.6-31.2 0c-6.3-6.3-7.9-15.4-5-23.2l-29.2-29.2v64.6c2 .9 3.8 2.2 5.5 3.9 8.6 8.6 8.6 22.6 0 31.2s-22.6 8.6-31.2 0c-8.6-8.6-8.6-22.6 0-31.2 2-2 4.4-3.4 6.9-4.3V94.8c-2.5-.9-4.8-2.3-6.9-4.3-6.3-6.3-7.9-15.5-4.9-23.3L77.9 34.6 5.3 107.2c-7 7-7 18.5 0 25.5l109.4 109.4c7 7 18.5 7 25.5 0l110.5-110.5c7-7 7-18.4 0-25.4"/>
  </svg>